<?xml version="1.0" encoding="UTF-8"?>
<svg version="1.1" xmlns="http://www.w3.org/2000/svg" width="96" height="96">
    <path
        d="M0 0 C0.69641602 -0.00700928 1.39283203 -0.01401855 2.11035156 -0.02124023 C4.40730932 -0.03881383 6.70303021 -0.02720107 9 -0.01367188 C10.59896073 -0.01636701 12.19791987 -0.0202496 13.796875 -0.02526855 C17.14599226 -0.03116269 20.49468243 -0.0226038 23.84375 -0.00390625 C28.13478591 0.01888377 32.42482111 0.00576017 36.71582031 -0.01819611 C40.01700366 -0.03265667 43.31795011 -0.02804703 46.61914062 -0.01768494 C48.20117308 -0.01501834 49.78322711 -0.0182851 51.36523438 -0.02760315 C53.57740163 -0.03777366 55.787953 -0.02226378 58 0 C59.8871875 0.00477356 59.8871875 0.00477356 61.8125 0.00964355 C65 0.51757812 65 0.51757812 67.40515137 2.20422363 C69.36145995 5.04188181 69.50637196 6.6194577 69.51757812 10.04882812 C69.53018677 11.15677734 69.54279541 12.26472656 69.55578613 13.40625 C69.54768921 14.59798828 69.53959229 15.78972656 69.53125 17.01757812 C69.53699036 18.85932617 69.53699036 18.85932617 69.54284668 20.73828125 C69.54556842 23.33399272 69.53818911 25.92973149 69.52148438 28.52539062 C69.50008075 32.50257412 69.52127963 36.47795094 69.546875 40.45507812 C69.54423177 42.97591545 69.53910691 45.49675166 69.53125 48.01757812 C69.53934692 49.20931641 69.54744385 50.40105469 69.55578613 51.62890625 C69.54317749 52.73685547 69.53056885 53.84480469 69.51757812 54.98632812 C69.51439575 55.96021484 69.51121338 56.93410156 69.50793457 57.9375 C68.83096096 61.37622009 67.86314465 62.50975853 65 64.51757812 C61.8125 65.0255127 61.8125 65.0255127 58 65.03515625 C57.30358398 65.04216553 56.60716797 65.0491748 55.88964844 65.05639648 C53.59269068 65.07397008 51.29696979 65.06235732 49 65.04882812 C47.40103927 65.05152326 45.80208013 65.05540585 44.203125 65.0604248 C40.85400774 65.06631894 37.50531757 65.05776005 34.15625 65.0390625 C29.86521409 65.01627248 25.57517889 65.02939608 21.28417969 65.05335236 C17.98299634 65.06781292 14.68204989 65.06320328 11.38085938 65.05284119 C9.79882692 65.05017459 8.21677289 65.05344135 6.63476562 65.0627594 C4.42259837 65.07292991 2.212047 65.05742003 0 65.03515625 C-1.258125 65.03197388 -2.51625 65.0287915 -3.8125 65.0255127 C-7 64.51757812 -7 64.51757812 -9.40515137 62.83093262 C-11.36145995 59.99327444 -11.50637196 58.41569855 -11.51757812 54.98632812 C-11.53018677 53.87837891 -11.54279541 52.77042969 -11.55578613 51.62890625 C-11.54768921 50.43716797 -11.53959229 49.24542969 -11.53125 48.01757812 C-11.5350769 46.78974609 -11.53890381 45.56191406 -11.54284668 44.296875 C-11.54556842 41.70116353 -11.53818911 39.10542476 -11.52148438 36.50976562 C-11.50008075 32.53258213 -11.52127963 28.55720531 -11.546875 24.58007812 C-11.54423177 22.0592408 -11.53910691 19.53840459 -11.53125 17.01757812 C-11.53934692 15.82583984 -11.54744385 14.63410156 -11.55578613 13.40625 C-11.54317749 12.29830078 -11.53056885 11.19035156 -11.51757812 10.04882812 C-11.51439575 9.07494141 -11.51121338 8.10105469 -11.50793457 7.09765625 C-10.22580835 0.58503433 -5.94519734 0.01503812 0 0 Z M-3 8.51757812 C-3 9.83757813 -3 11.15757813 -3 12.51757812 C-1.32071092 14.07342457 -1.32071092 14.07342457 0.98828125 15.28710938 C1.83511475 15.78065918 2.68194824 16.27420898 3.55444336 16.78271484 C4.46460205 17.29334473 5.37476074 17.80397461 6.3125 18.33007812 C8.15460202 19.38961536 9.99575532 20.45080381 11.8359375 21.51367188 C12.72764648 22.02526855 13.61935547 22.53686523 14.53808594 23.06396484 C18.44188636 25.36892594 22.1326961 27.95105571 25.80859375 30.60351562 C28.00513233 31.80071879 28.00513233 31.80071879 30.35058594 30.73999023 C32.87151751 29.57685861 35.20792403 28.3098808 37.58203125 26.87304688 C38.43216797 26.36064453 39.28230469 25.84824219 40.15820312 25.3203125 C41.03412109 24.78728516 41.91003906 24.25425781 42.8125 23.70507812 C43.67681641 23.18365234 44.54113281 22.66222656 45.43164062 22.125 C47.14011747 21.09217739 48.8448091 20.05306401 50.54541016 19.00732422 C52.15439423 18.03079539 53.77898283 17.07942976 55.41943359 16.15673828 C56.1511377 15.73569824 56.8828418 15.3146582 57.63671875 14.88085938 C58.28729248 14.51903564 58.93786621 14.15721191 59.6081543 13.78442383 C60.06746338 13.36636475 60.52677246 12.94830566 61 12.51757812 C61 11.19757812 61 9.87757812 61 8.51757812 C39.88 8.51757812 18.76 8.51757812 -3 8.51757812 Z M-3 21.51757812 C-3 33.06757812 -3 44.61757813 -3 56.51757812 C18.12 56.51757812 39.24 56.51757812 61 56.51757812 C61 44.96757813 61 33.41757812 61 21.51757812 C52.92173468 25.92390466 45.29491425 30.44806866 37.74414062 35.6328125 C36.56174805 36.40915039 36.56174805 36.40915039 35.35546875 37.20117188 C34.31362427 37.90584595 34.31362427 37.90584595 33.25073242 38.62475586 C30.10918969 39.87094544 28.23315966 39.40287574 25 38.51757812 C22.39453125 37.16650391 22.39453125 37.16650391 19.8125 35.46289062 C18.86632812 34.84800781 17.92015625 34.233125 16.9453125 33.59960938 C15.97335938 32.95378906 15.00140625 32.30796875 14 31.64257812 C12.06421268 30.37173631 10.12675882 29.10342874 8.1875 27.83789062 C7.33542969 27.27344238 6.48335937 26.70899414 5.60546875 26.12744141 C2.83713825 24.41694934 -0.08940736 22.97287444 -3 21.51757812 Z "
        fill="#000000" transform="translate(19,15.482421875)" />
</svg>
